<?xml version="1.0" encoding="utf-8"?>
<svg viewBox="0 0 226.133 18.384" fill="white" xmlns="http://www.w3.org/2000/svg">
  <g transform="matrix(1, 0, 0, 1, 0, -1.010854715202004e-14)">
    <path fill="white" d="M113.66.001c-3.979 0-6.344 2.828-6.344 6.262s2.365 6.262 6.344 6.262S120 9.715 120 6.263C120 2.81 117.636 0 113.66 0m0 11.03c-2.848 0-4.627-2.06-4.627-4.768s1.779-4.768 4.627-4.768 4.624 2.083 4.624 4.768-1.779 4.767-4.624 4.767M57.424 1.495c2.22 0 3.797 1.537 3.898 3.133h1.658C62.878 2.303 60.858 0 57.506 0c-4.061 0-6.363 2.848-6.363 6.281 0 3.375 2.18 6.243 6.464 6.243 2.564 0 4.444-1.174 5.373-2.325l-1.092-.981a6.07 6.07 0 0 1-4.28 1.818c-3.212 0-4.73-2.103-4.73-4.748 0-2.828 1.76-4.787 4.546-4.787M75.863.406v5.069c0 3.616-2.161 5.559-4.578 5.559-1.998 0-3.09-1.436-3.09-3.84V.407h-3.923V1.82h2.262v5.778c0 2.867 1.635 4.928 4.624 4.928 2.325 0 3.898-1.194 4.686-2.891v2.485h1.658V.406zM105.242.406l-4.251 10.039L96.649.406h-3.24V1.82h2.06l4.623 10.725c-.687 1.678-1.795 2.708-3.188 2.708a2.85 2.85 0 0 1-1.374-.285v1.514a4.4 4.4 0 0 0 1.616.265c1.998 0 3.371-1.174 4.319-3.355L107.024.406zM85.283 2.525V.407h-4.97v1.412h3.312v8.888h-3.312v1.412h9.008v-1.412h-4.038V5.213c.327-1.92 2.017-3.695 4.1-3.695a5.2 5.2 0 0 1 2.158.383V.407A3.8 3.8 0 0 0 89.746 0a5.23 5.23 0 0 0-4.463 2.524M43.71 2.525V.406h-4.974V1.82h3.313v8.888h-3.313v1.412h9.009v-1.412H43.71V5.213c.304-1.92 2.02-3.695 4.12-3.695a5.2 5.2 0 0 1 2.142.383V.406a3.9 3.9 0 0 0-1.818-.405 5.28 5.28 0 0 0-4.444 2.524M21.045 10.707V4.77c0-2.685-1.717-4.768-4.3-4.768s-3.819 1.635-4.404 2.943A4.21 4.21 0 0 0 8.263.001C5.974.001 4.768 1.336 4.12 2.55V.407H0V1.82h2.466v10.3H4.12V5.233C4.284 3.88 5.428 1.52 7.96 1.52c1.838 0 2.982 1.03 2.982 3.734v6.867h1.655V5.17c.222-1.308 1.308-3.652 3.819-3.652 1.857 0 2.97 1.03 2.97 3.734v6.867h3.534v-1.413zM36.774 6.263C36.774 2.81 34.51 0 30.614 0S24.37 2.849 24.37 6.282c0 3.516 2.263 6.243 6.465 6.243 2.616 0 4.483-1.272 5.232-2.263l-1.09-.981c-1.01 1.092-2.403 1.74-4.25 1.74-2.616 0-4.385-1.74-4.578-4.222H36.75a5 5 0 0 0 .023-.536m-10.604-.87c.326-2.289 2.04-3.898 4.443-3.898a4.293 4.293 0 0 1 4.428 3.898z"/>
    <text style="fill: rgb(255, 255, 255); font-family: Arial, sans-serif; font-size: 10px; white-space: pre;" x="-1.711" y="10.422"><tspan x="122.175" y="15.055" style="font-size: 13px; word-spacing: 0px;">X</tspan><tspan style="font-size: 10px; word-spacing: 0px;"> Liquidity Operations</tspan></text>
  </g>
</svg>